<svg xmlns="http://www.w3.org/2000/svg" id="medium-icon" x="0px" y="0px" viewBox="0 0 24 24" style="enable-background:new 0 0 24 24;" xml:space="preserve">
  <defs>
  <style type="text/css">
    .st2{fill:#f9d843;}
  </style>
  </defs>
<path class="st2" d="M19.8,0H4.2C1.9,0,0,1.9,0,4.2v15.6C0,22.1,1.9,24,4.2,24h15.6c2.3,0,4.2-1.9,4.2-4.2v-1.1c-0.1,0-0.3,0-0.4,0
	c-2.6,0-4-2.1-4.1-4.8c0-0.1,0-0.2,0-0.3c0-0.1,0-0.1,0-0.2c0,0,0-0.1,0-0.1c0,0,0-0.1,0-0.1c0.1-1.2,0.5-2.2,1.1-3
	C21,9.7,21.5,9.3,22,9.1c0.5-0.2,1.1-0.4,1.7-0.4h0c0.1,0,0.2,0,0.3,0V4.2C24,1.9,22.1,0,19.8,0z M19.6,5.7L19.6,5.7
	c-0.7,0.2-1.1,0.4-1.1,1.3h0l0,10.3c0.1,0.7,0.4,0.9,1.1,1l0,0v0.1h-4.9v-0.1l0,0c0.6-0.1,1-0.4,1.1-1v-10L11,18.4h-0.3L6.1,7.6V17
	c0,0.9,0.4,1.1,1.1,1.3l0,0v0.1H4.4v-0.1l0,0c0.7-0.2,1.1-0.4,1.1-1.3V7c0-0.9-0.4-1.1-1.1-1.3l0,0V5.6h4.2l3.6,8.4l3.6-8.4h3.9V5.7
	z M23.7,9.3c0.1,0,0.2,0,0.3,0v3.1h-2.2C21.9,10.6,22.6,9.3,23.7,9.3z M21.8,12.9H24v3.6C22.7,16.1,21.7,14.6,21.8,12.9L21.8,12.9z"
	/>
</svg>
