<svg width="157" height="44" viewBox="0 0 157 44" fill="none" xmlns="http://www.w3.org/2000/svg">
<g clip-path="url(#clip0_2209_72)">
<path d="M60.8 29C59.8 31.2 57.9 31.6 58.1 30.1C58.3 28.5 59.5 25 60 23.3C60.4 21.9 60.8 20.5 60.7 19C60.6 17.6 59.7 17 58.5 17.3C53.5 18.3 50.1 24.7 49.8 25.1C49.7 25.2 49.6 25.1 49.6 25C49.7 24.1 50.2 19.5 50 18.5C49.7 17.2 46.8 17 45.5 19.5C44 22 41.5 25.1 38.3 27.5C38.2 27.6 38 27.5 38 27.3C38.2 26.2 39.1 23.2 39.7 20.8C39.9 20.2 40.1 19.5 39.6 18.9C38.9 18.2 37.1 17.8 36.3 18.8C35.4 20 30.3 29.5 27.8 30.2C27.2 30.4 26.5 30.1 26.6 29.5C26.7 29.1 30.4 18.9 30.6 18.4C30.8 17.8 30.6 17.1 30.1 16.9C29.3 16.6 27.8 16.9 26.6 17.4C25.7 17.7 25.1 18.5 24.9 19.4C24.6 20.8 22.5 27.2 21.8 29.2C21.3 30.7 20.7 32.2 21 33.9C21.1 34.7 21.5 35.2 22.2 35.6C23.2 36.1 24.4 36.1 25.7 35.7C26.8 35.4 27.8 34.8 28.7 34.1C29.4 33.6 30.1 33 30.6 32.4C31.4 31.5 32.1 30.5 32.8 29.5C32.9 29.4 33.1 29.5 33.1 29.6C32.9 30.6 32.6 32.4 32.7 33.3C32.9 35 34 35.5 35.5 34.8C37.9 33.8 43.8 26.8 44.7 25.6C44.8 25.4 45.1 25.6 45 25.8C44.9 26.5 44.8 27.2 44.7 27.9C44.5 29 43.7 33.1 43.5 33.9C43.3 34.9 43.6 35.4 44.2 35.5C47.1 36.3 48.1 33.2 48.6 32.4C49.3 31.3 52.3 25 54.6 24.2C55 24.1 55.4 24.2 55.2 24.8C53.8 28.9 52.8 34.2 54.5 35.3C55.2 35.8 56.5 36.1 57.8 35.5C60 34.5 62.8 32.5 63.1 28.9C63 27.9 61.5 27.4 60.8 29Z" fill="#0E1411"/>
<path d="M14.8 10.3C14.4 11.3 14.7 11.7 15.7 12C16.2 12.1 17.4 12.2 18.8 11.2C20.7 9.90001 22.9 6.90001 23.3 4.10001C23.4 3.10001 22.8 1.00001 20.1 1.10001C13.9 1.30001 7.19999 6.00001 4.09999 11C3.29999 12.3 2.59999 13.7 2.29999 15.2C2.29999 15.4 2.19999 15.7 2.19999 15.9C1.99999 21.6 10.6 26.3 11.9 27.1C14.3 28.6 14.1 30.1 13.7 30.8C13 32.9 9.79999 36.1 8.09999 36.7C6.99999 37.1 5.89999 36.9 6.09999 35.8C6.39999 34.5 7.79999 33.6 8.49999 33C9.89999 32 8.49999 30.6 7.19999 30.6C5.19999 30.6 1.69999 33.1 0.499986 36.2C-0.200014 38 -0.400014 40.8 1.39999 42.1C3.99999 44 6.99999 43.1 8.99999 42.3C13.3 40.7 18.9 34 19.9 29.1C20.1 27.9 20.1 26.7 19.7 25.5C19.2 24.1 18.1 23.2 17 22.3C15.8 21.3 11.7 18 11 17.4C9.49999 16.1 9.19999 14.9 9.79999 13.3C10.5 11.3 13.5 7.70001 15.1 7.20001C16.3 6.80001 16.3 7.70001 16.2 8.00001C15.9 8.70001 15.1 9.50001 14.8 10.3Z" fill="#0E1411"/>
<path d="M76.5 9.19997C76.1 10.2 76.4 10.6 77.4 10.9C77.9 11 79.1 11.1 80.5 10.1C82.4 8.79997 84.6 5.79997 85 2.99997C85.1 1.99997 84.5 -0.10003 81.8 -3.01476e-05C75.7 0.19997 69 4.89997 65.8 9.89997C65 11.2 64.3 12.6 64 14.1C64 14.3 63.9 14.6 63.9 14.8C63.7 20.5 72.3 25.2 73.6 26C76 27.5 75.8 29 75.4 29.7C74.7 31.8 71.5 35 69.8 35.6C68.7 36 67.6 35.8 67.8 34.7C68.1 33.4 69.5 32.5 70.2 31.9C71.6 30.9 70.2 29.5 68.9 29.5C66.9 29.5 63.4 32 62.2 35.1C61.5 36.9 61.3 39.7 63.1 41C65.7 42.9 68.7 42 70.7 41.2C75 39.6 80.6 32.9 81.6 28C81.8 26.8 81.8 25.6 81.4 24.4C80.9 23 79.8 22.1 78.7 21.2C77.5 20.2 73.4 16.9 72.7 16.3C71.2 15 70.9 13.8 71.5 12.2C72.2 10.2 75.2 6.59997 76.8 6.09997C78 5.69997 78 6.59997 77.9 6.89997C77.6 7.59997 76.8 8.39997 76.5 9.19997Z" fill="#0E1411"/>
<path d="M148.7 32.2C148 32.9 147.5 33.3 146.6 33.1C144 32.5 147.6 24.9 149.5 23.2C150.8 22 150.4 20.4 149 20.1C147.7 19.8 144 18.8 142.7 18.1C141.7 17.6 140.4 16.2 138.8 17.1C138 17.6 137 20.8 136.9 21.1C133.9 27.8 130.4 32.4 125.8 32.7C124.8 32.8 123.8 31.5 123.8 30.4C125.8 29.5 130.4 27.7 132.7 24.2C134 22.3 134 19.4 133.1 18.1C132.8 17.7 132.4 17.3 132 17.1C130.6 16.4 128.2 16.7 125.9 17.8C124.6 18.5 123.4 19.4 122.4 20.5C120 23.3 118.8 25.9 118.6 28.5C117.7 29.7 115.8 30 116.3 28.2C116.6 27.2 120.5 15.8 120.6 15.5C123.3 15 126 14.5 128.7 13.9C130.3 13.5 130.6 12.6 130.3 11.8C130 11.1 128.7 11.1 125.8 11.5C123.8 11.8 121.8 11.8 121.8 11.8C121.8 11.7 123 8.2 123.1 8C123.4 7.1 122.4 6.6 121.3 6.5C120.5 6.5 119.3 6.7 118.7 7.8C118.4 8.3 116.9 12.1 116.8 12.3C114.6 12.5 112.3 12.6 110.1 12.7C110.1 12.7 111.5 9.3 111.7 8.6C111.9 8 112.1 7.4 111.3 7C109.9 6.2 108 6.7 107.2 8.3C107.1 8.5 105.4 12.3 105.4 12.3C105.3 12.5 105.3 12.6 105.2 12.8C105.2 12.8 102.5 13.1 98.9 12.4C95.8 11.8 96.7 14.2 97.4 15.1C97.8 15.6 98.4 16 99 16.3C99.8 16.7 100.6 16.9 101.5 16.9C102.3 16.9 103.3 16.9 103.3 16.9C103.3 17 99.6 24.4 98.6 25.7C95.6 29.4 91.3 31.8 89.4 31.9C88.4 31.9 87.6 31.6 87.7 30.5C89.7 29.6 94.3 27.8 96.6 24.3C97.9 22.4 97.9 19.5 97 18.2C96.7 17.8 96.3 17.4 95.9 17.2C94.5 16.5 92.1 16.8 89.8 17.9C88.4 18.6 87.2 19.6 86.2 20.8C82.9 24.7 81.9 28.5 82.7 32.2C82.8 32.5 82.9 32.9 83 33.2C83.9 35.2 85.6 36 87.9 36.1C92.2 36.2 96.4 33.7 99.1 30.2C98.8 31.6 98.1 32.9 98.2 34.6C98.4 36.8 101.8 37.1 103.4 35.5C105.1 34.2 109.2 29.7 111.3 27.2C111.4 27.1 111.5 27.2 111.5 27.3C111.3 27.8 111.2 28.3 111 28.7C110.7 29.8 110.4 30.8 110.1 31.9C109.8 33.1 110 34.5 111 35.3C112 36.2 113.9 35.8 114.9 35.1C115.6 34.6 117.8 33 118.9 32.2C119 32.4 119.1 32.7 119.2 32.9C120.1 34.8 121.8 36.2 124.1 36.3C133.2 36.7 139.8 25.7 141.7 21.8C142.8 22.3 144.7 22.9 144.7 22.9C142.6 25.7 140.1 31.2 140.9 34.1C141.7 36.8 145.3 36.9 146.7 36.4C148.3 35.8 149.3 35 149.8 33.9C150.9 32.2 149.6 31.3 148.7 32.2ZM124.1 26.6C124.9 23 127.9 20.6 129.2 20.4C130 20.2 130.5 20.6 130.5 21.1C130.7 23.4 126.9 25.9 124.4 26.8C124.2 26.8 124 26.7 124.1 26.6ZM87.9 26.7C88.7 23.1 91.7 20.7 93 20.5C93.8 20.3 94.3 20.7 94.3 21.2C94.5 23.5 90.7 26 88.2 26.9C88 27 87.9 26.8 87.9 26.7ZM105.9 29.5C105.4 30 104.5 29.5 104.7 28.8C105.4 26.4 108.7 17.4 108.7 17.4C108.8 17.2 108.9 16.9 109 16.7C111.2 16.6 113.3 16.4 115.5 16.1C115.5 16.2 115.3 16.5 115.3 16.6C113.4 21.2 109.6 26 105.9 29.5Z" fill="#0E1411"/>
<path d="M157 19C157 20.1 156.1 21.1 154.9 21.1C153.7 21.1 152.8 20.2 152.8 19C152.8 17.8 153.7 17 154.9 17C156 16.9 157 17.8 157 19ZM153.3 19C153.3 19.9 154 20.6 154.9 20.6C155.8 20.6 156.5 19.9 156.5 19C156.5 18.1 155.8 17.4 154.9 17.4C154 17.4 153.3 18.1 153.3 19ZM154.5 20.1H154V18.1C154.2 18.1 154.4 18 154.8 18C155.2 18 155.4 18.1 155.5 18.2C155.6 18.3 155.7 18.4 155.7 18.6C155.7 18.8 155.5 19 155.3 19.1C155.5 19.2 155.6 19.3 155.7 19.6C155.8 19.9 155.8 20 155.9 20.1H155.4C155.3 20 155.3 19.9 155.2 19.6C155.2 19.4 155 19.3 154.8 19.3H154.6V20.1H154.5ZM154.5 18.9H154.7C155 18.9 155.2 18.8 155.2 18.6C155.2 18.4 155.1 18.3 154.8 18.3C154.7 18.3 154.6 18.3 154.5 18.3V18.9Z" fill="#0E1411"/>
</g>
<defs>
<clipPath id="clip0_2209_72">
<rect width="157" height="43.3" fill="white"/>
</clipPath>
</defs>
</svg>
