<?xml version="1.0" encoding="utf-8"?>
<svg version="1.1" id="Layer_1" xmlns="http://www.w3.org/2000/svg" xmlns:xlink="http://www.w3.org/1999/xlink" x="0px" y="0px"
	 viewBox="0 0 138 52" style="enable-background:new 0 0 138 52;" xml:space="preserve">
<style type="text/css">
	.st0{clip-path:url(#SVGID_2_);fill:#000000;}
</style>
<g>
	<defs>
		<rect id="SVGID_1_" width="138" height="51.9"/>
	</defs>
	<clipPath id="SVGID_2_">
		<use xlink:href="#SVGID_1_"  style="overflow:visible;"/>
	</clipPath>
	<path class="st0" d="M102.1,11.5l-1.4,4.2c-1.1-2.6-3.7-4.2-7.2-4.2H80.1H67.5l-1.4,4.1c-0.9-2.5-3.1-4.1-6.4-4.1H37.5
		c-1,0-1.9-0.1-2.6-0.4c-1.9-1.2-2.7-3.6-2.5-6.5L32.7,1c-1.9-0.5-3.9-0.9-5.9-0.9l-0.6,3.4c-0.6,2.9-2.2,5.1-4.3,5.7
		c-2.3,0.5-4.8-0.8-6.8-3.2L13,3.5c-1.7,1-3.5,2.3-5,3.7l1.4,1.9c2.1,2.8,2.7,5.7,1.5,7.9c-1.3,2.1-4.1,2.9-7.5,2.4l-2.6-0.2
		c-0.5,2.1-0.9,4.1-1,6.2l2.3,0.3C5.7,26,8.3,27.7,9,30.2c0.5,2.2-0.6,4.5-2.9,6.5l-2.6,2.3c1,1.7,2.3,3.3,3.7,4.9L9.5,42
		c2.7-1.8,5.4-2.4,7.5-1.2c2.4,1.4,2.4,6.2,2.2,9L19,51.9h25c4.1,0,8.4-2.2,11.6-5.4l-1.8,5.4h12.5l6.4-18.5h3.2l6.4,18.4h13.6
		l-6.5-18.9c5.1-1.3,9.8-5.5,11.6-10.6c0.4-1.1,0.5-2.2,0.6-3.2h10.3l-11.6,32.9h12.5l11.2-32.6h11.3l2.7-7.8H102.1z M28.4,29.6
		C26.2,33,21.7,34,18.5,32c-3.1-2.1-3.9-6.4-1.6-9.7c2.3-3.3,6.7-4.4,9.9-2.4C30,21.8,30.8,26.3,28.4,29.6z M46.8,39.1
		c-0.8,2.3-3.3,4.2-5.6,4.2h-7l2.9-8.3h7C46.4,35,47.7,36.9,46.8,39.1z M51.2,23c-0.8,2.2-3,3.9-5.2,3.9h-6.4l2.6-7.7h6.4
		C50.8,19.2,51.9,21,51.2,23z M56,30.2c2.4-0.6,4.6-1.9,6.5-3.8l-2.8,8.2C59.1,32.6,57.8,31,56,30.2z M86.3,23
		c-0.8,2.2-3,3.9-5.2,3.9h-6.4l2.6-7.7h6.4C85.9,19.2,87.1,21,86.3,23z"/>
</g>
</svg>
