<?xml version="1.0" encoding="utf-8"?>
<!-- Generator: Adobe Illustrator 25.2.1, SVG Export Plug-In . SVG Version: 6.00 Build 0)  -->
<svg version="1.1" id="Layer_1" xmlns="http://www.w3.org/2000/svg" xmlns:xlink="http://www.w3.org/1999/xlink" x="0px" y="0px"
	 viewBox="0 0 150 104" style="enable-background:new 0 0 150 104;" xml:space="preserve">
<style type="text/css">
	.st0{opacity:0.5;fill:#FFFFFF;}
	.st1{fill:#FFFFFF;}
	.st2{opacity:0.5;}
</style>
<g>
	<path class="st0" d="M46.2,101.4c-0.7,0-1.3-0.6-1.3-1.3v-5.2c0-0.7,0.6-1.3,1.3-1.3s1.3,0.6,1.3,1.3v5.2
		C47.5,100.8,46.9,101.4,46.2,101.4z"/>
	<path class="st0" d="M51.2,101.4c-0.7,0-1.3-0.6-1.3-1.3v-5.2c0-0.7,0.6-1.3,1.3-1.3c0.7,0,1.3,0.6,1.3,1.3v5.2
		C52.5,100.8,51.9,101.4,51.2,101.4z"/>
	<path class="st0" d="M18.5,101.4c-0.7,0-1.3-0.6-1.3-1.3v-5.2c0-0.7,0.6-1.3,1.3-1.3c0.7,0,1.3,0.6,1.3,1.3v5.2
		C19.8,100.8,19.2,101.4,18.5,101.4z"/>
	<path class="st0" d="M23.5,101.4c-0.7,0-1.3-0.6-1.3-1.3v-5.2c0-0.7,0.6-1.3,1.3-1.3c0.7,0,1.3,0.6,1.3,1.3v5.2
		C24.8,100.8,24.2,101.4,23.5,101.4z"/>
	<path class="st0" d="M8.5,101.4c-0.7,0-1.3-0.6-1.3-1.3v-5.2c0-0.7,0.6-1.3,1.3-1.3c0.7,0,1.3,0.6,1.3,1.3v5.2
		C9.8,100.8,9.2,101.4,8.5,101.4z"/>
	<path class="st0" d="M13.5,101.4c-0.7,0-1.3-0.6-1.3-1.3v-5.2c0-0.7,0.6-1.3,1.3-1.3c0.7,0,1.3,0.6,1.3,1.3v5.2
		C14.8,100.8,14.2,101.4,13.5,101.4z"/>
	<path class="st0" d="M103.9,101.4c-0.7,0-1.3-0.6-1.3-1.3v-5.2c0-0.7,0.6-1.3,1.3-1.3c0.7,0,1.3,0.6,1.3,1.3v5.2
		C105.2,100.8,104.6,101.4,103.9,101.4z"/>
	<path class="st0" d="M108.9,101.4c-0.7,0-1.3-0.6-1.3-1.3v-5.2c0-0.7,0.6-1.3,1.3-1.3c0.7,0,1.3,0.6,1.3,1.3v5.2
		C110.2,100.8,109.6,101.4,108.9,101.4z"/>
	<path class="st0" d="M56.2,101.4c-0.7,0-1.3-0.6-1.3-1.3v-5.2c0-0.7,0.6-1.3,1.3-1.3c0.7,0,1.3,0.6,1.3,1.3v5.2
		C57.5,100.8,56.9,101.4,56.2,101.4z"/>
	<path class="st0" d="M61.2,101.4c-0.7,0-1.3-0.6-1.3-1.3v-5.2c0-0.7,0.6-1.3,1.3-1.3c0.7,0,1.3,0.6,1.3,1.3v5.2
		C62.5,100.8,61.9,101.4,61.2,101.4z"/>
	<path class="st0" d="M66.2,101.4c-0.7,0-1.3-0.6-1.3-1.3v-5.2c0-0.7,0.6-1.3,1.3-1.3s1.3,0.6,1.3,1.3v5.2
		C67.5,100.8,66.9,101.4,66.2,101.4z"/>
	<path class="st0" d="M71.2,101.4c-0.7,0-1.3-0.6-1.3-1.3v-5.2c0-0.7,0.6-1.3,1.3-1.3c0.7,0,1.3,0.6,1.3,1.3v5.2
		C72.5,100.8,71.9,101.4,71.2,101.4z"/>
	<path class="st0" d="M76.3,101.4c-0.7,0-1.3-0.6-1.3-1.3v-5.2c0-0.7,0.6-1.3,1.3-1.3s1.3,0.6,1.3,1.3v5.2
		C77.5,100.8,76.9,101.4,76.3,101.4z"/>
	<path class="st0" d="M81.3,101.4c-0.7,0-1.3-0.6-1.3-1.3v-5.2c0-0.7,0.6-1.3,1.3-1.3c0.7,0,1.3,0.6,1.3,1.3v5.2
		C82.5,100.8,81.9,101.4,81.3,101.4z"/>
	<path class="st1" d="M86.4,21c-13.3,10.1-25,19.1-40.8,13.4c-1.5,2.2-2.3,5.2-2.7,8.3c4.3,1.5,8.4,2.2,12.3,2.2
		c14.2,0,25.9-8.9,36.5-17c14.4-11,27-20.6,45.1-12.8c2.2-0.9,4.6-2.8,6.8-6.5C119-3.8,101.7,9.4,86.4,21z"/>
	<path class="st0" d="M93.9,26.3v30.2c-2.2-0.4-7.9-2.2-13.4-10.4c-0.6-1.1-1.2-2-1.6-2.7c-0.3-0.6-0.6-1-0.8-1.3c0,0,0,0,0,0
		c-0.6-1.2-1.3-2.2-1.9-3.3c-1.8,1-3.7,2-5.6,2.8c0.7,1.1,1.4,2.2,2.1,3.4c0,0,0,0,0,0c0,0,0,0,0,0c0,0,0,0,0,0
		c0.9,1.6,1.7,3,2.6,4.4c3.8,6.5,9.9,18.8,9.9,35.5v15.2c0,1.7,1.4,3.1,3.1,3.1s3.1-1.4,3.1-3.1V64.8c0-0.7,0.6-1.3,1.3-1.3
		s1.3,0.6,1.3,1.3v0.9v34.4c0,1.7,1.4,3.1,3.1,3.1c1.7,0,3.1-1.4,3.1-3.1V65.7v-44C98.1,23.2,96,24.7,93.9,26.3z"/>
	<path class="st1" d="M39.8,31.8c-0.6-0.3-1.2-0.6-1.7-1c-9.3-5.6-19.9-12-36.3-0.2c-2,1.4-2.4,4.1-1,6.1c1.4,2,4.1,2.4,6.1,1
		c11.2-8,16.8-5.3,26.6,0.6c1.1,0.7,2.3,1.3,3.4,1.9C37.5,37.2,38.4,34.3,39.8,31.8z"/>
	<path class="st0" d="M45.2,24.8c-3.6,0.9-6.9,2.5-9.6,4.5c0.8,0.5,1.7,1,2.5,1.5c0.6,0.4,1.2,0.7,1.7,1c-1.5,2.5-2.3,5.3-2.9,8.4
		c-1.1-0.6-2.2-1.2-3.4-1.9c-1.4-0.9-2.8-1.7-4.1-2.4c-1.4,2.3-2.1,4.8-2.1,7.4c0,0.1,0,0.2,0,0.2c0,0.2,0,0.3,0,0.5v56.1
		c0,1.7,1.4,3.1,3.1,3.1c1.7,0,3.1-1.4,3.1-3.1V44c0-0.7,0.6-1.3,1.3-1.3s1.3,0.6,1.3,1.3v56.1c0,1.7,1.4,3.1,3.1,3.1
		c1.7,0,3.1-1.4,3.1-3.1V51c0-6.6,0.5-14.6,4.5-18.2c2-1.8,4.8-2.5,8.7-2.1c2.7,0.5,5.6,1.7,8.6,4c2.1-0.7,4.2-1.6,6.3-2.7
		C63.4,25.1,54.5,22.5,45.2,24.8z"/>
	<g class="st2">
		<path class="st1" d="M99.8,8.2c2.9-1.9,5.9-2.3,9.1-1.4c2.5-1,5.1-1.9,7.8-2.4c-1.1-1.1-2.2-2-3.3-2.5c-5.8-2.8-11.7-2.4-17.1,1.1
			c-1.4,0.9-1.8,2.9-0.9,4.3C96.4,8.7,98.3,9.1,99.8,8.2z"/>
		<path class="st1" d="M148.4,11.3l-4.8-2.6c0,0,0,0,0,0l0,0c0,0,0,0,0,0c-0.2,0.4-0.5,0.8-0.7,1.2c-0.1,0.1-0.1,0.2-0.2,0.3
			c-0.2,0.3-0.5,0.6-0.7,0.9c0,0,0,0.1-0.1,0.1c-0.3,0.3-0.5,0.6-0.8,0.9c-0.1,0.1-0.1,0.1-0.2,0.2c-0.2,0.3-0.5,0.5-0.7,0.7
			c0,0,0,0-0.1,0.1c-0.3,0.2-0.5,0.5-0.8,0.7c0,0,0,0-0.1,0c-0.3,0.2-0.5,0.4-0.8,0.6c0,0,0,0,0,0c-0.6,0.4-1.1,0.6-1.7,0.9l0,0l0,0
			c-3.9,1.6-7.4,0.1-8.6-0.5c0,0-0.1,0-0.1,0c0,0,0,0-0.1,0c-1.2-0.5-2.4-1.3-3.5-2.2c-2.8,0-5.4,0.3-8,1c2.5,2.6,5.4,5.3,8.9,6.9
			c0,0,0,0,0,0c0,0,0.1,0,0.1,0c0,0,0,0,0.1,0c0,0,0,0,0,0c2.2,1.1,4.8,1.7,7.6,1.7c4,0,8.4-1.5,12-5.4c1.5,0.8,3.5,0.3,4.4-1.2
			C150.4,14,149.9,12.1,148.4,11.3z"/>
	</g>
</g>
</svg>
