<svg width="151" height="43" viewBox="0 0 151 43" fill="none" xmlns="http://www.w3.org/2000/svg">
<g clip-path="url(#clip0_2223_266)">
<mask id="mask0_2223_266" style="mask-type:luminance" maskUnits="userSpaceOnUse" x="0" y="0" width="151" height="43">
<path d="M150.912 0H0V43H150.912V0Z" fill="white"/>
</mask>
<g mask="url(#mask0_2223_266)">
<path d="M125.011 27.6491C125.628 23.7241 128.271 21.6308 131.618 21.6308C135.495 21.6308 137.873 23.9858 137.962 27.6491H125.011ZM132.852 43C136.464 43 139.812 42.215 142.455 40.645L142.895 35.1501C139.988 36.8073 136.816 37.854 133.645 37.854C128.976 37.854 125.804 35.7607 125.011 31.7485H143.688C143.864 30.9635 143.952 29.7424 143.952 28.783C143.952 22.0669 139.723 16.6592 131.618 16.6592C123.778 16.6592 118.756 22.6775 118.756 29.8296C118.756 37.7667 124.483 43 132.852 43ZM102.282 42.4767H116.201V37.5051H112.325V0H102.194V5.05882H106.246V37.5051H102.194V42.4767H102.282ZM82.636 38.5517C80.1692 38.5517 78.5834 37.4179 78.5834 35.3245C78.5834 32.9696 80.5216 31.4868 83.7812 31.4868C85.8075 31.4868 87.7456 31.7485 89.2433 32.0974V36.1095C87.3051 37.5923 85.0146 38.5517 82.636 38.5517ZM80.6978 43C84.1336 43 87.3051 41.5172 89.3314 39.6856V42.5639H98.9341V37.5051H95.1459V26.428C95.1459 20.5842 91.71 16.8337 84.1336 16.8337C77.262 16.8337 74.0023 20.0609 74.0023 23.2008C74.0023 25.2069 75.4119 26.5152 77.262 26.5152C79.112 26.5152 80.6097 25.2069 80.6097 23.288C80.6097 22.8519 80.5216 22.3286 80.3454 21.9797C80.9621 21.7181 81.8431 21.5436 83.0764 21.5436C86.8647 21.5436 89.1552 22.9391 89.1552 26.8641V29.0446C87.8337 28.6957 85.1908 28.2596 82.5478 28.2596C76.4691 28.2596 72.2404 31.1379 72.2404 35.8479C72.4166 40.5578 76.2048 43 80.6978 43ZM62.021 43C64.3997 43 66.3378 42.3895 68.0998 41.5172L68.6284 36.284C67.1307 37.069 65.1925 37.6795 63.6068 37.6795C61.5805 37.6795 60.4352 36.8945 60.4352 34.6268V22.2414H68.276V17.1826H60.4352V9.15822L54.4446 11.6876V17.1826H49.5111V22.2414H54.4446V35.6734C54.4446 40.7323 57.6161 43 62.021 43ZM34.2701 42.4767H48.1015V37.5051H44.2252V17.1826H34.2701V22.2414H38.2345V37.5051H34.2701V42.4767ZM40.6132 12.9087C42.8156 12.9087 44.7538 11.0771 44.7538 8.80933C44.7538 6.54158 42.9037 4.79716 40.6132 4.79716C38.4107 4.79716 36.4726 6.54158 36.4726 8.80933C36.5607 11.1643 38.4107 12.9087 40.6132 12.9087ZM13.3028 43H17.5315L27.839 22.2414H30.8343V17.1826H17.972V21.9797H21.9364L15.5934 35.5862L9.25029 21.9797H12.9504V17.1826H0V22.2414H3.08343L13.3028 43Z" fill="#0E1411"/>
</g>
<mask id="mask1_2223_266" style="mask-type:luminance" maskUnits="userSpaceOnUse" x="0" y="0" width="151" height="43">
<path d="M150.912 0H0V43H150.912V0Z" fill="white"/>
</mask>
<g mask="url(#mask1_2223_266)">
<path d="M145.018 19.3905V19.078H147.2V19.3905H146.285V21.9871H145.933V19.3905H145.018ZM147.743 19.078H148.164L149.152 21.4927H149.187L150.175 19.078H150.596V21.9871H150.266V19.7768H150.238L149.329 21.9871H149.01L148.101 19.7768H148.073V21.9871H147.743V19.078Z" fill="#0E1411"/>
</g>
</g>
<defs>
<clipPath id="clip0_2223_266">
<rect width="151" height="43" fill="white"/>
</clipPath>
</defs>
</svg>
